<svg width="64" height="57" viewBox="0 0 64 57" fill="none" xmlns="http://www.w3.org/2000/svg">
<path d="M64 52.44C64 53.922 63.4729 55.0525 62.4187 55.8315C61.3645 56.6105 60.0707 57 58.5373 57H5.46271C3.92932 57 2.63552 56.601 1.58131 55.803C0.527104 55.005 0 53.884 0 52.44C0 51.3 0.345013 50.141 1.03504 48.963L27.5436 3.135C28.8086 1.045 30.3037 0 32.0288 0C33.7538 0 35.2105 1.045 36.3989 3.135L62.965 49.02C63.655 50.236 64 51.376 64 52.44ZM35.9964 23.313V14.991H28.0036V23.313C28.0036 23.845 28.0419 24.3485 28.1186 24.8235C28.1953 25.2985 28.3007 25.8305 28.4349 26.4195C28.569 27.0085 28.6745 27.512 28.7511 27.93L30.2462 37.164H33.6388L35.1914 27.93C35.268 27.55 35.383 27.056 35.5364 26.448C35.6897 25.84 35.8047 25.2985 35.8814 24.8235C35.9581 24.3485 35.9964 23.845 35.9964 23.313ZM35.9964 45.372C35.9964 44.27 35.6035 43.339 34.8176 42.579C34.0317 41.819 33.083 41.439 31.9712 41.439C30.8979 41.439 29.9683 41.819 29.1824 42.579C28.3965 43.339 28.0036 44.27 28.0036 45.372C28.0036 46.474 28.3965 47.4145 29.1824 48.1935C29.9683 48.9725 30.8979 49.362 31.9712 49.362C33.083 49.362 34.0317 48.9725 34.8176 48.1935C35.6035 47.4145 35.9964 46.474 35.9964 45.372Z" fill="#FFC32C"/>
</svg>
