<svg width="196" height="93" viewBox="0 0 196 93" fill="none" xmlns="http://www.w3.org/2000/svg">
<path d="M92.6895 6.17434C89.6624 11.5831 85.9141 16.1819 81.6092 20.6607C71.002 31.6965 59.4869 41.8843 48.3683 52.3927C38.7516 61.4816 29.2724 70.6909 20.0026 80.1336C18.3528 81.8142 14.5851 85.6795 12.7635 87.5739C12.7571 87.5806 9.91503 91.0849 9.26704 90.9984C8.71706 90.9251 8.99737 89.9008 9.04544 89.3478C9.21454 87.402 9.52259 85.9769 10.0796 84.0262C12.1263 76.8589 15.6568 70.1898 19.6333 63.9227C33.0305 42.8081 52.093 23.5308 72.6957 9.42638C76.7525 6.64917 81.499 3.46415 86.3368 2.13393C88.5504 1.52529 88.6888 3.08634 88.7006 4.89323C88.7854 17.8661 81.1733 31.178 73.459 41.1338C69.4249 46.3402 64.7716 51.3086 59.4732 55.2506C58.6485 55.8642 52.85 60.3075 51.4215 58.4534C50.3066 57.0062 52.132 53.1682 52.7511 51.9493C55.2658 46.9983 60.1305 43.6999 65.0134 41.3802C67.2261 40.3289 79.7382 34.7694 80.8459 39.4585C83.524 50.7954 70.8255 62.4782 63.536 68.8993C57.1657 74.5108 50.3019 79.7954 43.0497 84.2233C42.8373 84.353 34.1171 89.7255 34.5056 86.8102C34.9233 83.6752 38.4823 80.4441 40.4397 78.2613C43.8669 74.4392 47.4113 70.4681 51.2738 67.0762C51.3294 67.0274 54.473 64.1756 54.918 65.0067C55.483 66.062 55.0144 68.8234 54.918 69.8848C54.6142 73.2284 53.5086 76.0033 51.3723 78.6062C51.0976 78.9408 45.8028 84.1806 48.3436 81.8829C57.321 73.7642 69.6821 67.6209 81.2645 64.3169C82.0835 64.0833 86.1739 62.6472 87.0755 63.7749C88.5094 65.5683 85.9647 70.5569 85.2534 72.0528C83.8375 75.0307 82.0937 77.887 80.3781 80.7003C80.2717 80.8748 78.2269 84.1696 78.7283 81.6611C79.3671 78.4657 81.6029 75.4958 83.4559 72.9151C86.1721 69.1325 89.1846 65.5 93.0835 62.888C95.3524 61.368 96.853 61.1075 95.2996 64.4647C94.0283 67.2122 91.5143 69.3912 89.4393 71.5108C88.0583 72.9216 83.7656 76.7527 85.5981 76.0193C87.4081 75.2949 89.1971 73.3401 90.769 72.2253C93.3742 70.3775 95.9439 68.4779 98.5498 66.6328C99.8763 65.6935 104.273 62.8991 103.671 66.682C103.29 69.0795 101.543 70.8723 99.8794 72.4963C99.4485 72.917 94.4629 77.0552 98.0081 74.8121C101.872 72.3671 105.636 69.9116 109.802 67.9878C110.111 67.8451 118.142 64.3928 117.805 65.4995C116.935 68.3596 113.012 70.5212 110.714 71.9543C110.64 72.0001 104.717 75.8488 105.1 74.073C106.113 69.3697 109.454 64.3753 111.452 60.0794C115.759 50.8181 120.736 41.2727 122.286 31.0574C122.99 26.4227 123.142 20.5728 118.544 17.8275C110.877 13.2509 98.224 15.517 90.3257 17.8521C77.6845 21.5896 65.7343 28.5243 54.7702 35.6891C42.2981 43.8394 30.4837 53.2941 20.2735 64.1691C15.3659 69.3962 10.8073 74.9742 6.33691 80.5771C5.01545 82.2333 2.16658 85.0076 2.00328 87.3768C1.86718 89.3513 6.00505 87.7998 7.9374 87.3768C29.2049 82.722 50.0616 75.5713 71.0214 69.737C97.9027 62.2543 124.823 54.7745 151.982 48.3523C161.147 46.185 170.298 44.2209 179.559 42.5381C180.621 42.3451 191.611 39.5753 193.717 40.5671C195.139 41.2367 190.807 41.765 189.31 42.2424C183.299 44.1589 179.183 45.3492 172.788 47.1451C148.38 53.9996 123.827 60.3695 99.3377 66.9284" stroke="#0D0D0D" stroke-width="3" stroke-linecap="round"/>
</svg>
